<mxfile host="app.diagrams.net" modified="2021-11-28T07:57:19.041Z" agent="5.0 (Windows NT 10.0; Win64; x64) AppleWebKit/537.36 (KHTML, like Gecko) Chrome/96.0.4664.45 Safari/537.36" etag="WzeCBzgk4R9eN7KH2B2y" version="15.8.6" type="github">
  <diagram id="thSH0ayQxO71pJ6wV1Sd" name="Page-1">
    <mxGraphModel dx="317" dy="194" grid="1" gridSize="10" guides="1" tooltips="1" connect="1" arrows="1" fold="1" page="1" pageScale="1" pageWidth="850" pageHeight="1100" math="0" shadow="0">
      <root>
        <mxCell id="0" />
        <mxCell id="1" parent="0" />
        <mxCell id="qbq0ifineMjqy3SYOCrd-1" value="Car dealership" style="rounded=0;whiteSpace=wrap;html=1;" parent="1" vertex="1">
          <mxGeometry x="355" y="210" width="110" height="40" as="geometry" />
        </mxCell>
        <mxCell id="qbq0ifineMjqy3SYOCrd-2" value="Service facility" style="rounded=0;whiteSpace=wrap;html=1;" parent="1" vertex="1">
          <mxGeometry x="320" y="370" width="120" height="40" as="geometry" />
        </mxCell>
        <mxCell id="qbq0ifineMjqy3SYOCrd-3" value="Car" style="rounded=0;whiteSpace=wrap;html=1;" parent="1" vertex="1">
          <mxGeometry x="680" y="470" width="100" height="40" as="geometry" />
        </mxCell>
        <mxCell id="qbq0ifineMjqy3SYOCrd-4" value="Salesperson" style="rounded=0;whiteSpace=wrap;html=1;" parent="1" vertex="1">
          <mxGeometry x="245" y="440" width="110" height="40" as="geometry" />
        </mxCell>
        <mxCell id="qbq0ifineMjqy3SYOCrd-6" value="Mechanic" style="rounded=0;whiteSpace=wrap;html=1;" parent="1" vertex="1">
          <mxGeometry x="760" y="300" width="110" height="30" as="geometry" />
        </mxCell>
        <mxCell id="qbq0ifineMjqy3SYOCrd-7" value="Customer" style="rounded=0;whiteSpace=wrap;html=1;" parent="1" vertex="1">
          <mxGeometry x="300" y="760" width="120" height="40" as="geometry" />
        </mxCell>
        <mxCell id="qbq0ifineMjqy3SYOCrd-9" value="Serial Number" style="ellipse;whiteSpace=wrap;html=1;" parent="1" vertex="1">
          <mxGeometry x="425" y="170" width="100" height="30" as="geometry" />
        </mxCell>
        <mxCell id="qbq0ifineMjqy3SYOCrd-14" value="" style="endArrow=none;html=1;rounded=0;entryX=0;entryY=1;entryDx=0;entryDy=0;exitX=0.632;exitY=0.034;exitDx=0;exitDy=0;exitPerimeter=0;" parent="1" source="qbq0ifineMjqy3SYOCrd-1" target="qbq0ifineMjqy3SYOCrd-9" edge="1">
          <mxGeometry width="50" height="50" relative="1" as="geometry">
            <mxPoint x="400" y="240" as="sourcePoint" />
            <mxPoint x="450" y="190" as="targetPoint" />
            <Array as="points" />
          </mxGeometry>
        </mxCell>
        <mxCell id="2t8MsXC4N8kTPNsJ7Vme-1" value="sells" style="rhombus;whiteSpace=wrap;html=1;" parent="1" vertex="1">
          <mxGeometry x="570" y="220" width="80" height="60" as="geometry" />
        </mxCell>
        <mxCell id="2t8MsXC4N8kTPNsJ7Vme-9" value="" style="endArrow=none;html=1;rounded=0;exitX=0.5;exitY=0;exitDx=0;exitDy=0;entryX=0.5;entryY=1;entryDx=0;entryDy=0;" parent="1" target="qbq0ifineMjqy3SYOCrd-3" edge="1">
          <mxGeometry width="50" height="50" relative="1" as="geometry">
            <mxPoint x="685" y="570" as="sourcePoint" />
            <mxPoint x="430" y="360" as="targetPoint" />
          </mxGeometry>
        </mxCell>
        <mxCell id="2t8MsXC4N8kTPNsJ7Vme-10" value="" style="endArrow=none;html=1;rounded=0;entryX=0.5;entryY=1;entryDx=0;entryDy=0;" parent="1" target="qbq0ifineMjqy3SYOCrd-3" edge="1">
          <mxGeometry width="50" height="50" relative="1" as="geometry">
            <mxPoint x="788.683206449515" y="572.9389316994315" as="sourcePoint" />
            <mxPoint x="670" y="410" as="targetPoint" />
          </mxGeometry>
        </mxCell>
        <mxCell id="2t8MsXC4N8kTPNsJ7Vme-11" value="&lt;u&gt;Serial Number&lt;/u&gt;" style="ellipse;whiteSpace=wrap;html=1;" parent="1" vertex="1">
          <mxGeometry x="700" y="620" width="100" height="35" as="geometry" />
        </mxCell>
        <mxCell id="2t8MsXC4N8kTPNsJ7Vme-12" value="" style="endArrow=none;html=1;rounded=0;exitX=0.5;exitY=0;exitDx=0;exitDy=0;entryX=0.5;entryY=1;entryDx=0;entryDy=0;" parent="1" source="2t8MsXC4N8kTPNsJ7Vme-11" target="qbq0ifineMjqy3SYOCrd-3" edge="1">
          <mxGeometry width="50" height="50" relative="1" as="geometry">
            <mxPoint x="380" y="410" as="sourcePoint" />
            <mxPoint x="660" y="390" as="targetPoint" />
          </mxGeometry>
        </mxCell>
        <mxCell id="2t8MsXC4N8kTPNsJ7Vme-14" value="&lt;span&gt;Service History&lt;/span&gt;" style="ellipse;whiteSpace=wrap;html=1;" parent="1" vertex="1">
          <mxGeometry x="320" y="150" width="110" height="30" as="geometry" />
        </mxCell>
        <mxCell id="2t8MsXC4N8kTPNsJ7Vme-15" value="" style="endArrow=none;html=1;rounded=0;entryX=0.5;entryY=1;entryDx=0;entryDy=0;exitX=0.649;exitY=0.024;exitDx=0;exitDy=0;exitPerimeter=0;" parent="1" source="qbq0ifineMjqy3SYOCrd-1" target="2t8MsXC4N8kTPNsJ7Vme-14" edge="1">
          <mxGeometry width="50" height="50" relative="1" as="geometry">
            <mxPoint x="434.5200000000001" y="261.36" as="sourcePoint" />
            <mxPoint x="466.158324791017" y="202.70000389270126" as="targetPoint" />
            <Array as="points" />
          </mxGeometry>
        </mxCell>
        <mxCell id="2t8MsXC4N8kTPNsJ7Vme-16" value="sells" style="rhombus;whiteSpace=wrap;html=1;" parent="1" vertex="1">
          <mxGeometry x="440" y="430" width="80" height="70" as="geometry" />
        </mxCell>
        <mxCell id="2t8MsXC4N8kTPNsJ7Vme-22" value="buys" style="rhombus;whiteSpace=wrap;html=1;" parent="1" vertex="1">
          <mxGeometry x="405" y="630" width="80" height="70" as="geometry" />
        </mxCell>
        <mxCell id="2t8MsXC4N8kTPNsJ7Vme-27" value="writes" style="rhombus;whiteSpace=wrap;html=1;" parent="1" vertex="1">
          <mxGeometry x="105" y="390" width="80" height="80" as="geometry" />
        </mxCell>
        <mxCell id="2t8MsXC4N8kTPNsJ7Vme-43" value="operates" style="rhombus;whiteSpace=wrap;html=1;" parent="1" vertex="1">
          <mxGeometry x="230" y="260" width="80" height="70" as="geometry" />
        </mxCell>
        <mxCell id="2t8MsXC4N8kTPNsJ7Vme-48" value="gets" style="rhombus;whiteSpace=wrap;html=1;" parent="1" vertex="1">
          <mxGeometry x="520" y="360" width="80" height="70" as="geometry" />
        </mxCell>
        <mxCell id="2t8MsXC4N8kTPNsJ7Vme-56" value="&lt;span&gt;parts&lt;/span&gt;" style="ellipse;whiteSpace=wrap;html=1;" parent="1" vertex="1">
          <mxGeometry x="570" y="315" width="50" height="40" as="geometry" />
        </mxCell>
        <mxCell id="2t8MsXC4N8kTPNsJ7Vme-57" value="" style="endArrow=none;html=1;rounded=0;entryX=0.054;entryY=0.714;entryDx=0;entryDy=0;entryPerimeter=0;exitX=0.5;exitY=0;exitDx=0;exitDy=0;" parent="1" source="2t8MsXC4N8kTPNsJ7Vme-48" target="2t8MsXC4N8kTPNsJ7Vme-56" edge="1">
          <mxGeometry width="50" height="50" relative="1" as="geometry">
            <mxPoint x="370" y="430" as="sourcePoint" />
            <mxPoint x="420" y="380" as="targetPoint" />
          </mxGeometry>
        </mxCell>
        <mxCell id="2t8MsXC4N8kTPNsJ7Vme-75" value="Used Car" style="ellipse;shape=doubleEllipse;margin=3;whiteSpace=wrap;html=1;align=center;" parent="1" vertex="1">
          <mxGeometry x="640" y="570" width="80" height="40" as="geometry" />
        </mxCell>
        <mxCell id="2t8MsXC4N8kTPNsJ7Vme-76" value="New Car" style="ellipse;shape=doubleEllipse;margin=3;whiteSpace=wrap;html=1;align=center;" parent="1" vertex="1">
          <mxGeometry x="760" y="570" width="80" height="40" as="geometry" />
        </mxCell>
        <mxCell id="2t8MsXC4N8kTPNsJ7Vme-79" value="Service ticket" style="shape=ext;margin=3;double=1;whiteSpace=wrap;html=1;align=center;" parent="1" vertex="1">
          <mxGeometry x="545" y="760" width="100" height="40" as="geometry" />
        </mxCell>
        <mxCell id="2t8MsXC4N8kTPNsJ7Vme-80" value="Invoice" style="shape=ext;margin=3;double=1;whiteSpace=wrap;html=1;align=center;" parent="1" vertex="1">
          <mxGeometry x="70" y="540" width="100" height="40" as="geometry" />
        </mxCell>
        <mxCell id="2t8MsXC4N8kTPNsJ7Vme-83" value="" style="shape=link;html=1;rounded=0;startArrow=none;startFill=0;endArrow=none;endFill=0;entryX=0.5;entryY=1;entryDx=0;entryDy=0;" parent="1" edge="1">
          <mxGeometry relative="1" as="geometry">
            <mxPoint x="165" y="690" as="sourcePoint" />
            <mxPoint x="95" y="580" as="targetPoint" />
          </mxGeometry>
        </mxCell>
        <mxCell id="2t8MsXC4N8kTPNsJ7Vme-84" value="N" style="resizable=0;html=1;align=right;verticalAlign=bottom;" parent="2t8MsXC4N8kTPNsJ7Vme-83" connectable="0" vertex="1">
          <mxGeometry x="1" relative="1" as="geometry">
            <mxPoint x="-5" y="17" as="offset" />
          </mxGeometry>
        </mxCell>
        <mxCell id="2t8MsXC4N8kTPNsJ7Vme-85" value="" style="shape=link;html=1;rounded=0;startArrow=none;startFill=0;endArrow=none;endFill=0;entryX=0;entryY=0.5;entryDx=0;entryDy=0;exitX=0.46;exitY=0.997;exitDx=0;exitDy=0;exitPerimeter=0;" parent="1" target="2t8MsXC4N8kTPNsJ7Vme-79" edge="1">
          <mxGeometry relative="1" as="geometry">
            <mxPoint x="556.8" y="719.8050000000001" as="sourcePoint" />
            <mxPoint x="650" y="780" as="targetPoint" />
          </mxGeometry>
        </mxCell>
        <mxCell id="2t8MsXC4N8kTPNsJ7Vme-86" value="1" style="resizable=0;html=1;align=right;verticalAlign=bottom;" parent="2t8MsXC4N8kTPNsJ7Vme-85" connectable="0" vertex="1">
          <mxGeometry x="1" relative="1" as="geometry" />
        </mxCell>
        <mxCell id="2t8MsXC4N8kTPNsJ7Vme-87" value="works on" style="rhombus;whiteSpace=wrap;html=1;" parent="1" vertex="1">
          <mxGeometry x="810" y="400" width="80" height="60" as="geometry" />
        </mxCell>
        <mxCell id="2t8MsXC4N8kTPNsJ7Vme-91" value="N" style="text;html=1;align=center;verticalAlign=middle;resizable=0;points=[];autosize=1;strokeColor=none;fillColor=none;" parent="1" vertex="1">
          <mxGeometry x="1000" y="260" width="20" height="20" as="geometry" />
        </mxCell>
        <mxCell id="g9F3EM3z2ZfnebZ1vC58-1" value="&lt;span&gt;has&lt;/span&gt;" style="shape=rhombus;double=1;perimeter=rhombusPerimeter;whiteSpace=wrap;html=1;align=center;" parent="1" vertex="1">
          <mxGeometry x="160" y="660" width="120" height="60" as="geometry" />
        </mxCell>
        <mxCell id="g9F3EM3z2ZfnebZ1vC58-2" value="&lt;span&gt;has&lt;/span&gt;" style="shape=rhombus;double=1;perimeter=rhombusPerimeter;whiteSpace=wrap;html=1;align=center;" parent="1" vertex="1">
          <mxGeometry x="500" y="660" width="120" height="60" as="geometry" />
        </mxCell>
        <mxCell id="u-ZMiGR0ZVf3cmjara1f-1" value="" style="endArrow=none;html=1;rounded=0;entryX=0.5;entryY=1;entryDx=0;entryDy=0;exitX=0;exitY=0.5;exitDx=0;exitDy=0;" edge="1" parent="1" source="2t8MsXC4N8kTPNsJ7Vme-1" target="qbq0ifineMjqy3SYOCrd-1">
          <mxGeometry relative="1" as="geometry">
            <mxPoint x="370" y="280" as="sourcePoint" />
            <mxPoint x="530" y="280" as="targetPoint" />
          </mxGeometry>
        </mxCell>
        <mxCell id="u-ZMiGR0ZVf3cmjara1f-2" value="1" style="resizable=0;html=1;align=right;verticalAlign=bottom;" connectable="0" vertex="1" parent="u-ZMiGR0ZVf3cmjara1f-1">
          <mxGeometry x="1" relative="1" as="geometry">
            <mxPoint y="20" as="offset" />
          </mxGeometry>
        </mxCell>
        <mxCell id="u-ZMiGR0ZVf3cmjara1f-3" value="" style="endArrow=none;html=1;rounded=0;entryX=0;entryY=0.5;entryDx=0;entryDy=0;exitX=0.5;exitY=0;exitDx=0;exitDy=0;" edge="1" parent="1" source="2t8MsXC4N8kTPNsJ7Vme-43" target="qbq0ifineMjqy3SYOCrd-1">
          <mxGeometry relative="1" as="geometry">
            <mxPoint x="370" y="280" as="sourcePoint" />
            <mxPoint x="530" y="280" as="targetPoint" />
          </mxGeometry>
        </mxCell>
        <mxCell id="u-ZMiGR0ZVf3cmjara1f-4" value="1" style="resizable=0;html=1;align=right;verticalAlign=bottom;" connectable="0" vertex="1" parent="u-ZMiGR0ZVf3cmjara1f-3">
          <mxGeometry x="1" relative="1" as="geometry" />
        </mxCell>
        <mxCell id="u-ZMiGR0ZVf3cmjara1f-5" value="" style="endArrow=none;html=1;rounded=0;exitX=0.5;exitY=1;exitDx=0;exitDy=0;entryX=0;entryY=0.5;entryDx=0;entryDy=0;" edge="1" parent="1" source="2t8MsXC4N8kTPNsJ7Vme-43" target="qbq0ifineMjqy3SYOCrd-2">
          <mxGeometry relative="1" as="geometry">
            <mxPoint x="370" y="390" as="sourcePoint" />
            <mxPoint x="530" y="390" as="targetPoint" />
          </mxGeometry>
        </mxCell>
        <mxCell id="u-ZMiGR0ZVf3cmjara1f-6" value="1" style="resizable=0;html=1;align=right;verticalAlign=bottom;" connectable="0" vertex="1" parent="u-ZMiGR0ZVf3cmjara1f-5">
          <mxGeometry x="1" relative="1" as="geometry" />
        </mxCell>
        <mxCell id="u-ZMiGR0ZVf3cmjara1f-7" value="" style="endArrow=none;html=1;rounded=0;entryX=1;entryY=0.5;entryDx=0;entryDy=0;exitX=0;exitY=0.5;exitDx=0;exitDy=0;" edge="1" parent="1" source="2t8MsXC4N8kTPNsJ7Vme-48" target="qbq0ifineMjqy3SYOCrd-2">
          <mxGeometry relative="1" as="geometry">
            <mxPoint x="370" y="430" as="sourcePoint" />
            <mxPoint x="530" y="430" as="targetPoint" />
          </mxGeometry>
        </mxCell>
        <mxCell id="u-ZMiGR0ZVf3cmjara1f-8" value="N" style="resizable=0;html=1;align=right;verticalAlign=bottom;" connectable="0" vertex="1" parent="u-ZMiGR0ZVf3cmjara1f-7">
          <mxGeometry x="1" relative="1" as="geometry">
            <mxPoint x="10" as="offset" />
          </mxGeometry>
        </mxCell>
        <mxCell id="u-ZMiGR0ZVf3cmjara1f-9" value="" style="endArrow=none;html=1;rounded=0;exitX=1;exitY=0.5;exitDx=0;exitDy=0;" edge="1" parent="1" source="2t8MsXC4N8kTPNsJ7Vme-48">
          <mxGeometry relative="1" as="geometry">
            <mxPoint x="500" y="470" as="sourcePoint" />
            <mxPoint x="720" y="470" as="targetPoint" />
          </mxGeometry>
        </mxCell>
        <mxCell id="u-ZMiGR0ZVf3cmjara1f-10" value="N" style="resizable=0;html=1;align=right;verticalAlign=bottom;" connectable="0" vertex="1" parent="u-ZMiGR0ZVf3cmjara1f-9">
          <mxGeometry x="1" relative="1" as="geometry" />
        </mxCell>
        <mxCell id="u-ZMiGR0ZVf3cmjara1f-11" value="" style="endArrow=none;html=1;rounded=0;entryX=0.62;entryY=-0.041;entryDx=0;entryDy=0;entryPerimeter=0;exitX=1;exitY=0.5;exitDx=0;exitDy=0;" edge="1" parent="1" source="2t8MsXC4N8kTPNsJ7Vme-1" target="qbq0ifineMjqy3SYOCrd-3">
          <mxGeometry relative="1" as="geometry">
            <mxPoint x="500" y="470" as="sourcePoint" />
            <mxPoint x="660" y="470" as="targetPoint" />
          </mxGeometry>
        </mxCell>
        <mxCell id="u-ZMiGR0ZVf3cmjara1f-12" value="N" style="resizable=0;html=1;align=right;verticalAlign=bottom;" connectable="0" vertex="1" parent="u-ZMiGR0ZVf3cmjara1f-11">
          <mxGeometry x="1" relative="1" as="geometry">
            <mxPoint x="12" y="1" as="offset" />
          </mxGeometry>
        </mxCell>
        <mxCell id="u-ZMiGR0ZVf3cmjara1f-14" value="" style="endArrow=none;html=1;rounded=0;entryX=0.403;entryY=0.983;entryDx=0;entryDy=0;entryPerimeter=0;exitX=0.5;exitY=0;exitDx=0;exitDy=0;" edge="1" parent="1" source="2t8MsXC4N8kTPNsJ7Vme-87" target="qbq0ifineMjqy3SYOCrd-6">
          <mxGeometry relative="1" as="geometry">
            <mxPoint x="500" y="470" as="sourcePoint" />
            <mxPoint x="660" y="470" as="targetPoint" />
          </mxGeometry>
        </mxCell>
        <mxCell id="u-ZMiGR0ZVf3cmjara1f-15" value="N" style="resizable=0;html=1;align=right;verticalAlign=bottom;" connectable="0" vertex="1" parent="u-ZMiGR0ZVf3cmjara1f-14">
          <mxGeometry x="1" relative="1" as="geometry">
            <mxPoint y="20" as="offset" />
          </mxGeometry>
        </mxCell>
        <mxCell id="u-ZMiGR0ZVf3cmjara1f-16" value="" style="endArrow=none;html=1;rounded=0;entryX=1;entryY=0.5;entryDx=0;entryDy=0;exitX=0.5;exitY=1;exitDx=0;exitDy=0;" edge="1" parent="1" source="2t8MsXC4N8kTPNsJ7Vme-87" target="qbq0ifineMjqy3SYOCrd-3">
          <mxGeometry relative="1" as="geometry">
            <mxPoint x="500" y="510" as="sourcePoint" />
            <mxPoint x="660" y="510" as="targetPoint" />
          </mxGeometry>
        </mxCell>
        <mxCell id="u-ZMiGR0ZVf3cmjara1f-17" value="N" style="resizable=0;html=1;align=right;verticalAlign=bottom;" connectable="0" vertex="1" parent="u-ZMiGR0ZVf3cmjara1f-16">
          <mxGeometry x="1" relative="1" as="geometry">
            <mxPoint x="10" y="20" as="offset" />
          </mxGeometry>
        </mxCell>
        <mxCell id="u-ZMiGR0ZVf3cmjara1f-18" value="" style="endArrow=none;html=1;rounded=0;exitX=1;exitY=0.5;exitDx=0;exitDy=0;entryX=0;entryY=0;entryDx=0;entryDy=0;" edge="1" parent="1" source="2t8MsXC4N8kTPNsJ7Vme-16" target="qbq0ifineMjqy3SYOCrd-3">
          <mxGeometry relative="1" as="geometry">
            <mxPoint x="500" y="510" as="sourcePoint" />
            <mxPoint x="660" y="510" as="targetPoint" />
          </mxGeometry>
        </mxCell>
        <mxCell id="u-ZMiGR0ZVf3cmjara1f-19" value="N" style="resizable=0;html=1;align=right;verticalAlign=bottom;" connectable="0" vertex="1" parent="u-ZMiGR0ZVf3cmjara1f-18">
          <mxGeometry x="1" relative="1" as="geometry" />
        </mxCell>
        <mxCell id="u-ZMiGR0ZVf3cmjara1f-21" value="" style="endArrow=none;html=1;rounded=0;entryX=0;entryY=0.5;entryDx=0;entryDy=0;exitX=0.5;exitY=0;exitDx=0;exitDy=0;" edge="1" parent="1" source="2t8MsXC4N8kTPNsJ7Vme-22" target="qbq0ifineMjqy3SYOCrd-3">
          <mxGeometry relative="1" as="geometry">
            <mxPoint x="500" y="510" as="sourcePoint" />
            <mxPoint x="660" y="510" as="targetPoint" />
          </mxGeometry>
        </mxCell>
        <mxCell id="u-ZMiGR0ZVf3cmjara1f-22" value="N" style="resizable=0;html=1;align=right;verticalAlign=bottom;" connectable="0" vertex="1" parent="u-ZMiGR0ZVf3cmjara1f-21">
          <mxGeometry x="1" relative="1" as="geometry" />
        </mxCell>
        <mxCell id="u-ZMiGR0ZVf3cmjara1f-23" value="" style="endArrow=none;html=1;rounded=0;entryX=0;entryY=0.75;entryDx=0;entryDy=0;exitX=0.5;exitY=0;exitDx=0;exitDy=0;" edge="1" parent="1" source="g9F3EM3z2ZfnebZ1vC58-2" target="qbq0ifineMjqy3SYOCrd-3">
          <mxGeometry relative="1" as="geometry">
            <mxPoint x="230" y="529.5" as="sourcePoint" />
            <mxPoint x="390" y="529.5" as="targetPoint" />
          </mxGeometry>
        </mxCell>
        <mxCell id="u-ZMiGR0ZVf3cmjara1f-24" value="1" style="resizable=0;html=1;align=right;verticalAlign=bottom;" connectable="0" vertex="1" parent="u-ZMiGR0ZVf3cmjara1f-23">
          <mxGeometry x="1" relative="1" as="geometry">
            <mxPoint y="30" as="offset" />
          </mxGeometry>
        </mxCell>
        <mxCell id="u-ZMiGR0ZVf3cmjara1f-25" value="" style="endArrow=none;html=1;rounded=0;entryX=0.815;entryY=-0.025;entryDx=0;entryDy=0;entryPerimeter=0;exitX=0.5;exitY=1;exitDx=0;exitDy=0;" edge="1" parent="1" source="2t8MsXC4N8kTPNsJ7Vme-22" target="qbq0ifineMjqy3SYOCrd-7">
          <mxGeometry relative="1" as="geometry">
            <mxPoint x="370" y="670" as="sourcePoint" />
            <mxPoint x="530" y="670" as="targetPoint" />
          </mxGeometry>
        </mxCell>
        <mxCell id="u-ZMiGR0ZVf3cmjara1f-26" value="1" style="resizable=0;html=1;align=right;verticalAlign=bottom;" connectable="0" vertex="1" parent="u-ZMiGR0ZVf3cmjara1f-25">
          <mxGeometry x="1" relative="1" as="geometry" />
        </mxCell>
        <mxCell id="u-ZMiGR0ZVf3cmjara1f-27" value="" style="endArrow=none;html=1;rounded=0;entryX=0.333;entryY=0;entryDx=0;entryDy=0;entryPerimeter=0;exitX=1;exitY=0.5;exitDx=0;exitDy=0;" edge="1" parent="1" source="g9F3EM3z2ZfnebZ1vC58-1" target="qbq0ifineMjqy3SYOCrd-7">
          <mxGeometry relative="1" as="geometry">
            <mxPoint x="370" y="670" as="sourcePoint" />
            <mxPoint x="530" y="670" as="targetPoint" />
          </mxGeometry>
        </mxCell>
        <mxCell id="u-ZMiGR0ZVf3cmjara1f-28" value="1" style="resizable=0;html=1;align=right;verticalAlign=bottom;" connectable="0" vertex="1" parent="u-ZMiGR0ZVf3cmjara1f-27">
          <mxGeometry x="1" relative="1" as="geometry" />
        </mxCell>
        <mxCell id="u-ZMiGR0ZVf3cmjara1f-29" value="" style="endArrow=none;html=1;rounded=0;exitX=0.5;exitY=1;exitDx=0;exitDy=0;entryX=0.41;entryY=0.011;entryDx=0;entryDy=0;entryPerimeter=0;" edge="1" parent="1" source="2t8MsXC4N8kTPNsJ7Vme-27" target="2t8MsXC4N8kTPNsJ7Vme-80">
          <mxGeometry relative="1" as="geometry">
            <mxPoint x="180" y="410" as="sourcePoint" />
            <mxPoint x="100" y="530" as="targetPoint" />
          </mxGeometry>
        </mxCell>
        <mxCell id="u-ZMiGR0ZVf3cmjara1f-30" value="N" style="resizable=0;html=1;align=right;verticalAlign=bottom;" connectable="0" vertex="1" parent="u-ZMiGR0ZVf3cmjara1f-29">
          <mxGeometry x="1" relative="1" as="geometry" />
        </mxCell>
        <mxCell id="u-ZMiGR0ZVf3cmjara1f-32" value="" style="endArrow=none;html=1;rounded=0;exitX=1;exitY=0.5;exitDx=0;exitDy=0;entryX=0;entryY=0.5;entryDx=0;entryDy=0;" edge="1" parent="1" source="2t8MsXC4N8kTPNsJ7Vme-27" target="qbq0ifineMjqy3SYOCrd-4">
          <mxGeometry relative="1" as="geometry">
            <mxPoint x="310" y="410" as="sourcePoint" />
            <mxPoint x="470" y="410" as="targetPoint" />
          </mxGeometry>
        </mxCell>
        <mxCell id="u-ZMiGR0ZVf3cmjara1f-33" value="1" style="resizable=0;html=1;align=right;verticalAlign=bottom;" connectable="0" vertex="1" parent="u-ZMiGR0ZVf3cmjara1f-32">
          <mxGeometry x="1" relative="1" as="geometry" />
        </mxCell>
        <mxCell id="u-ZMiGR0ZVf3cmjara1f-34" value="" style="endArrow=none;html=1;rounded=0;entryX=1;entryY=0.5;entryDx=0;entryDy=0;exitX=0;exitY=0.5;exitDx=0;exitDy=0;" edge="1" parent="1" source="2t8MsXC4N8kTPNsJ7Vme-16" target="qbq0ifineMjqy3SYOCrd-4">
          <mxGeometry relative="1" as="geometry">
            <mxPoint x="310" y="410" as="sourcePoint" />
            <mxPoint x="470" y="410" as="targetPoint" />
          </mxGeometry>
        </mxCell>
        <mxCell id="u-ZMiGR0ZVf3cmjara1f-35" value="1" style="resizable=0;html=1;align=right;verticalAlign=bottom;" connectable="0" vertex="1" parent="u-ZMiGR0ZVf3cmjara1f-34">
          <mxGeometry x="1" relative="1" as="geometry" />
        </mxCell>
      </root>
    </mxGraphModel>
  </diagram>
</mxfile>
